<?xml version="1.0" encoding="UTF-8"?>
<svg id="Layer_1" xmlns="http://www.w3.org/2000/svg" xmlns:xlink="http://www.w3.org/1999/xlink" version="1.1" viewBox="0 0 10 10">
  <!-- Generator: Adobe Illustrator 29.2.1, SVG Export Plug-In . SVG Version: 2.1.0 Build 116)  -->
  <defs>
    <style>
      .st0 {
        fill: #8a2724;
      }

      .st1 {
        fill: #ff453a;
      }
    </style>
  </defs>
  <path class="st1" d="M5,10c2.7,0,5-2.2,5-5S7.7,0,5,0,0,2.2,0,5s2.2,5,5,5Z"/>
  <path class="st0" d="M3.3,7c-.2,0-.4-.2-.4-.4s0-.2.1-.3l1.4-1.4-1.4-1.4c0,0-.1-.2-.1-.3,0-.2.2-.4.4-.4s.2,0,.3.1l1.4,1.4,1.4-1.4c0,0,.2-.1.3-.1.2,0,.4.2.4.4s0,.2-.1.3l-1.4,1.4,1.4,1.4c0,0,.1.2.1.3,0,.2-.2.4-.4.4s-.2,0-.3-.1l-1.4-1.4-1.3,1.4c0,0-.2.1-.3.1Z"/>
</svg>