<?xml version="1.0" encoding="UTF-8"?>
<!--Generator: Apple Native CoreSVG 326-->
<!DOCTYPE svg
PUBLIC "-//W3C//DTD SVG 1.1//EN"
       "http://www.w3.org/Graphics/SVG/1.1/DTD/svg11.dtd">
<svg version="1.1" xmlns="http://www.w3.org/2000/svg" xmlns:xlink="http://www.w3.org/1999/xlink" viewBox="0 0 10.5078 10.3564">
 <g>
  <rect height="10.3564" opacity="0" width="10.5078" x="0" y="0"/>
  <path d="M0 5.34668C0 6.81641 0.424805 8.4375 1.14258 9.69727C1.26465 9.90723 1.49414 9.96582 1.71387 9.84375C1.91895 9.73145 1.97754 9.50195 1.85059 9.27246C1.19629 8.08105 0.830078 6.66016 0.830078 5.34668C0.830078 2.63672 2.48535 0.830078 4.9707 0.830078C7.45117 0.830078 9.11133 2.63672 9.11133 5.34668C9.11133 6.66016 8.74023 8.08105 8.08594 9.27246C7.95898 9.50195 8.01758 9.73145 8.22266 9.84375C8.44238 9.96582 8.67676 9.90723 8.79395 9.69727C9.51172 8.4375 9.94141 6.81641 9.94141 5.34668C9.94141 2.13379 7.95898 0 4.9707 0C1.97754 0 0 2.13379 0 5.34668ZM1.52832 9.5752C1.68945 10.1367 2.16797 10.3955 2.73438 10.2344C3.2959 10.0732 3.55957 9.58496 3.39355 9.02344L2.69531 6.64062C2.53418 6.08398 2.05566 5.82031 1.48926 5.98145C0.927734 6.14746 0.664062 6.63086 0.830078 7.19727ZM8.4082 9.5752L9.10645 7.19727C9.27246 6.62598 9.01367 6.14746 8.44727 5.98145C7.88086 5.82031 7.40723 6.08398 7.24121 6.64062L6.54297 9.02344C6.37695 9.58984 6.64062 10.0732 7.20215 10.2344C7.77344 10.3955 8.24707 10.1367 8.4082 9.5752Z" fill="#d1d5dc"/>
 </g>
</svg>
