<?xml version="1.0" encoding="UTF-8"?>
<!--Generator: Apple Native CoreSVG 326-->
<!DOCTYPE svg
PUBLIC "-//W3C//DTD SVG 1.1//EN"
       "http://www.w3.org/Graphics/SVG/1.1/DTD/svg11.dtd">
<svg version="1.1" xmlns="http://www.w3.org/2000/svg" xmlns:xlink="http://www.w3.org/1999/xlink" viewBox="0 0 10.7227 9.5752">
 <g>
  <rect height="9.5752" opacity="0" width="10.7227" x="0" y="0"/>
  <path d="M0 8.84766C0 9.2041 0.205078 9.40918 0.556641 9.40918C0.683594 9.40918 0.805664 9.37012 0.966797 9.28223L3.01758 8.17383L3.01758 0.0830078C2.92969 0.126953 2.83203 0.175781 2.74414 0.224609L0.429688 1.55273C0.136719 1.71387 0 1.94824 0 2.27539ZM3.68652 8.08105L6.14746 9.46289C6.2207 9.50195 6.29883 9.53613 6.37207 9.55566L6.37207 1.58691L3.95996 0.112305C3.87695 0.0585938 3.7793 0.0195312 3.68652 0ZM7.03613 9.54102C7.08496 9.52637 7.13867 9.50684 7.18262 9.47754L9.72656 8.03223C10.0195 7.87109 10.1562 7.63672 10.1562 7.30957L10.1562 0.732422C10.1562 0.371094 9.95117 0.170898 9.59961 0.170898C9.47266 0.170898 9.35059 0.209961 9.18945 0.297852L7.03613 1.49414Z" fill="white"/>
 </g>
</svg>
