<?xml version="1.0" encoding="UTF-8"?>
<!--Generator: Apple Native CoreSVG 326-->
<!DOCTYPE svg
PUBLIC "-//W3C//DTD SVG 1.1//EN"
       "http://www.w3.org/Graphics/SVG/1.1/DTD/svg11.dtd">
<svg version="1.1" xmlns="http://www.w3.org/2000/svg" xmlns:xlink="http://www.w3.org/1999/xlink" viewBox="0 0 8.33504 6.93359">
 <g>
  <rect height="6.93359" opacity="0" width="8.33504" x="0" y="0"/>
  <path d="M0.355018 2.35156C0.917518 2.17188 1.49955 2.07812 2.05424 2.07812C2.77299 2.07812 3.30033 2.19531 3.98002 2.19531C4.68314 2.19531 5.12064 1.71875 5.12064 1.09766C5.12064 0.460938 4.63236 0.00390625 4.0308 0.00390625C3.58549 0.00390625 3.19486 0.285156 3.0308 0.65625C2.9683 0.785156 2.99174 0.933594 3.12846 1.00391C3.25346 1.06641 3.4058 1.02734 3.48783 0.871094C3.57377 0.671875 3.78471 0.515625 4.0308 0.515625C4.35502 0.515625 4.60892 0.742188 4.60892 1.09766C4.60892 1.45312 4.36283 1.6875 3.98002 1.6875C3.33158 1.6875 2.79642 1.57031 2.05424 1.57031C1.41752 1.57031 0.772987 1.68359 0.198768 1.86719C0.0347055 1.91406-0.0277945 2.05469 0.011268 2.1875C0.0503305 2.32422 0.179237 2.40234 0.355018 2.35156ZM6.46439 4.17969C7.37455 4.17969 8.01908 3.60156 8.01908 2.79297C8.01908 1.99609 7.4058 1.41797 6.64408 1.41797C5.93705 1.41797 5.41361 1.91016 5.31986 2.55469C5.29642 2.71875 5.38627 2.84766 5.52689 2.86719C5.67142 2.88672 5.79642 2.79688 5.82767 2.61328C5.89408 2.20312 6.23392 1.92578 6.64408 1.92578C7.12064 1.92578 7.50736 2.28125 7.50736 2.79297C7.50736 3.3125 7.09721 3.67188 6.46439 3.67188C5.27299 3.67188 3.98783 2.99219 2.42533 2.99219C1.62064 2.99219 0.886268 3.12109 0.198768 3.36328C0.0386118 3.42188-0.0277945 3.55859 0.011268 3.69141C0.0503305 3.82812 0.183143 3.91016 0.355018 3.85156C0.991737 3.60938 1.6558 3.50391 2.42533 3.50391C3.98392 3.50391 5.14799 4.17969 6.46439 4.17969ZM3.98392 6.93359C4.58549 6.93359 5.05033 6.48828 5.05033 5.85156C5.05033 4.92969 4.10892 4.41406 2.37455 4.41406C1.64799 4.41406 0.862831 4.55469 0.198768 4.78125C0.0386118 4.83984-0.0277945 4.97656 0.011268 5.10938C0.0503305 5.24609 0.183143 5.32812 0.355018 5.26953C0.976112 5.04688 1.67142 4.92578 2.37455 4.92578C3.79252 4.92578 4.54252 5.28125 4.54252 5.85156C4.54252 6.20703 4.29252 6.42578 3.98392 6.42578C3.67533 6.42578 3.48783 6.21875 3.43314 5.89062C3.40971 5.74609 3.30424 5.625 3.13627 5.63672C2.96049 5.64844 2.89017 5.79688 2.91361 5.95703C2.98392 6.5 3.38627 6.93359 3.98392 6.93359Z" fill="white"/>
 </g>
</svg>
